<svg width="14" height="15" viewBox="0 0 14 15" fill="none" xmlns="http://www.w3.org/2000/svg">
<path d="M7 1.625C3.60938 1.625 0.875 4.38672 0.875 7.75C0.875 11.1406 3.60938 13.875 7 13.875C7.21875 13.875 7.4375 14.0938 7.4375 14.3125C7.4375 14.5586 7.21875 14.75 7 14.75C3.11719 14.75 0 11.6328 0 7.75C0 3.89453 3.11719 0.75 7 0.75C10.8555 0.75 14 3.89453 14 7.75V8.40625C14 9.74609 12.9062 10.8125 11.5938 10.8125C10.6641 10.8125 9.87109 10.3203 9.46094 9.55469C8.91406 10.3203 8.01172 10.8125 7 10.8125C5.30469 10.8125 3.9375 9.44531 3.9375 7.75C3.9375 6.08203 5.30469 4.6875 7 4.6875C7.84766 4.6875 8.61328 5.04297 9.1875 5.61719V5.5625C9.1875 5.34375 9.37891 5.125 9.625 5.125C9.84375 5.125 10.0625 5.34375 10.0625 5.5625V7.75V8.40625C10.0625 9.25391 10.7461 9.9375 11.5938 9.9375C12.4141 9.9375 13.125 9.25391 13.125 8.40625V7.75C13.125 4.38672 10.3633 1.625 7 1.625ZM9.1875 7.75C9.1875 6.98438 8.75 6.27344 8.09375 5.86328C7.41016 5.48047 6.5625 5.48047 5.90625 5.86328C5.22266 6.27344 4.8125 6.98438 4.8125 7.75C4.8125 8.54297 5.22266 9.25391 5.90625 9.66406C6.5625 10.0469 7.41016 10.0469 8.09375 9.66406C8.75 9.25391 9.1875 8.54297 9.1875 7.75Z" fill="currentColor"/>
</svg>
