<svg width="13" height="15" viewBox="0 0 13 15" fill="none" xmlns="http://www.w3.org/2000/svg">
<path d="M3.5 4.25V6H8.75V4.25C8.75 2.80078 7.57422 1.625 6.125 1.625C4.67578 1.625 3.5 2.80078 3.5 4.25ZM2.625 6V4.25C2.625 2.33594 4.18359 0.75 6.125 0.75C8.03906 0.75 9.625 2.33594 9.625 4.25V6H10.0625C11.2656 6 12.25 6.98438 12.25 8.1875V12.5625C12.25 13.793 11.2656 14.75 10.0625 14.75H2.1875C0.957031 14.75 0 13.793 0 12.5625V8.1875C0 6.98438 0.957031 6 2.1875 6H2.625ZM0.875 8.1875V12.5625C0.875 13.3008 1.44922 13.875 2.1875 13.875H10.0625C10.7734 13.875 11.375 13.3008 11.375 12.5625V8.1875C11.375 7.47656 10.7734 6.875 10.0625 6.875H2.1875C1.44922 6.875 0.875 7.47656 0.875 8.1875Z" fill="currentColor"/>
</svg>
