
<svg width="25" height="19" viewBox="0 0 25 19" fill="none" xmlns="http://www.w3.org/2000/svg">
<path d="M12.0312 5.94531C12.2656 5.71094 12.6953 5.71094 12.9297 5.94531L16.0547 9.07031C16.2891 9.30469 16.2891 9.73438 16.0547 9.96875C15.8203 10.2031 15.3906 10.2031 15.1562 9.96875L13.125 7.89844V13.875C13.125 14.2266 12.8125 14.5 12.5 14.5C12.1484 14.5 11.875 14.2266 11.875 13.875V7.89844L9.80469 9.96875C9.57031 10.2031 9.14062 10.2031 8.90625 9.96875C8.67188 9.73438 8.67188 9.30469 8.90625 9.07031L12.0312 5.94531ZM10.625 0.75C12.9297 0.75 15 1.92188 16.25 3.67969C16.7969 3.40625 17.4219 3.25 18.125 3.25C20.5078 3.25 22.5 5.24219 22.5 7.625C22.5 8.05469 22.4219 8.44531 22.3047 8.83594C23.9062 9.69531 25 11.3359 25 13.25C25 16.0234 22.7344 18.25 20 18.25H5.625C2.5 18.25 0 15.75 0 12.625C0 10.2031 1.5625 8.09375 3.75 7.35156C3.90625 3.67969 6.91406 0.75 10.625 0.75ZM10.625 2C7.57812 2 5.11719 4.38281 5 7.39062C4.96094 7.89844 4.64844 8.32812 4.14062 8.52344C2.46094 9.10938 1.25 10.75 1.25 12.625C1.25 15.0469 3.20312 17 5.625 17H20C22.0703 17 23.75 15.3203 23.75 13.25C23.75 11.8438 22.9297 10.5938 21.7188 9.96875C21.2109 9.65625 20.9375 9.07031 21.0938 8.48438C21.1719 8.21094 21.25 7.9375 21.25 7.625C21.25 5.90625 19.8438 4.5 18.125 4.5C17.6172 4.5 17.1875 4.61719 16.7578 4.8125C16.2109 5.08594 15.5469 4.89062 15.1953 4.42188C14.1797 2.97656 12.5 2 10.625 2Z" fill="currentColor"/>
</svg>
