<svg width="14" height="12" viewBox="0 0 14 12" fill="none" xmlns="http://www.w3.org/2000/svg">
<path d="M13 5.9375V6.09375C13 6.21875 12.9375 6.34375 12.8438 6.4375L8.15625 10.9062C8.0625 10.9688 7.96875 11 7.875 11C7.65625 11 7.46875 10.8438 7.46875 10.625V8C7.46875 7.75 7.25 7.5 6.96875 7.5H1.5C1.21875 7.5 1 7.28125 1 7V5C1 4.75 1.21875 4.5 1.5 4.5H7C7.25 4.5 7.5 4.28125 7.5 4V1.40625C7.5 1.1875 7.65625 1 7.875 1C7.96875 1 8.0625 1.0625 8.15625 1.125L12.8438 5.59375C12.9375 5.6875 13 5.8125 13 5.9375ZM7.875 12C8.25 12 8.59375 11.875 8.84375 11.625L13.5312 7.15625C13.8125 6.875 14 6.5 14 6.09375V5.9375C14 5.53125 13.8125 5.125 13.5312 4.84375L8.84375 0.40625C8.59375 0.15625 8.25 0 7.875 0C7.125 0 6.5 0.625 6.5 1.40625V3.5H1.5C0.65625 3.5 0 4.1875 0 5V7C0 7.84375 0.65625 8.5 1.5 8.5H6.5V10.625C6.5 11.375 7.125 12 7.875 12Z" fill="currentColor"/>
</svg>
