<svg width="120" height="120" viewBox="0 0 120 120" fill="none" xmlns="http://www.w3.org/2000/svg">
<rect width="120" height="120" rx="60" fill="#E7651C"/>
<path d="M37.4294 68.1942H55.6707C63.8144 68.1942 70.5423 74.8502 70.671 83.0386V83.2258H79.4816V83.0269C79.4348 77.1196 77.2116 71.4813 73.2451 67.118C79.2242 64.7902 83.2258 58.9413 83.2258 52.4725C83.2258 43.8162 76.2171 36.7742 67.6054 36.7742H36.7742V45.6176H67.6054C71.373 45.6176 74.4386 48.6941 74.4386 52.4842C74.4386 56.2743 71.373 59.3625 67.6054 59.3625H36.7742V68.2293L36.9848 68.2059C37.1252 68.1942 37.2773 68.1942 37.4294 68.1942Z" fill="white"/>
</svg>
