<svg width="41" height="32" viewBox="0 0 41 32" fill="none" xmlns="http://www.w3.org/2000/svg">
<path d="M14.5 16C18.875 16 22.5 12.4375 22.5 8C22.5 3.625 18.875 0 14.5 0C10.0625 0 6.5 3.625 6.5 8C6.5 12.4375 10.0625 16 14.5 16ZM14.5 2C17.75 2 20.5 4.75 20.5 8C20.5 11.3125 17.75 14 14.5 14C11.1875 14 8.5 11.3125 8.5 8C8.5 4.75 11.1875 2 14.5 2ZM25.125 30.4375C24.9375 30.1875 24.625 30 24.3125 30H2.625C2.5625 30 2.5 29.9375 2.5 29.875C2.4375 25 6.4375 21 11.3125 21H17.625C18.25 21 18.8125 21.125 19.375 21.1875C20 21.375 20.625 20.8125 20.5 20.1875C20.5 20.1875 20.5 20.1875 20.5 20.125C20.4375 19.6875 20.125 19.3125 19.6875 19.25C19.0625 19.125 18.375 19 17.625 19H11.3125C5.3125 19 0.4375 23.875 0.5 29.875C0.5 31.0625 1.4375 32 2.625 32H24.3125C25.125 32 25.625 31.125 25.125 30.4375ZM39.375 17L32.1875 14.1875C31.9375 14.0625 31.6875 14 31.4375 14C31.125 14 30.9375 14.0625 30.75 14.1875L23.5625 17C22.9375 17.25 22.5 17.875 22.5 18.5C22.5 25.4375 26.75 30.25 30.75 31.8125C31 32 31.25 32 31.4375 32C31.625 32 31.875 32 32.125 31.875C35.375 30.625 40.5 26.3125 40.5 18.5C40.5 17.875 40.0625 17.25 39.375 17ZM30.5 29.5C27.4375 27.875 24.5625 24.0625 24.5 18.75L30.5 16.4375V29.5ZM32.5 29.5625V16.4375L38.5 18.75C38.375 24.6875 34.875 28.1875 32.5 29.5625Z" fill="currentColor"/>
</svg>
