<svg width="37" height="29" viewBox="0 0 37 29" fill="none" xmlns="http://www.w3.org/2000/svg">
<path d="M35.4531 20.4609L30.5312 15.5391C29.875 14.8828 29 14.5 28.0703 14.5H23.6953C22.7656 14.5 21.9453 15.3203 21.9453 16.25V20.625C21.9453 21.5547 22.3281 22.4297 22.9844 23.0859L27.9062 28.0078C28.2891 28.3359 28.7266 28.5 29.1641 28.5C29.6016 28.5 30.0391 28.3359 30.3672 28.0078L35.4531 22.9766C36.1641 22.2656 36.1641 21.1719 35.4531 20.4609ZM29.1641 26.75L24.2422 21.8281C23.9141 21.5 23.6953 21.0625 23.6953 20.625V16.25H28.0703C28.5078 16.25 28.9453 16.4141 29.2734 16.7969L34.25 21.7188L29.1641 26.75ZM26.3203 18C25.8828 18 25.4453 18.4375 25.4453 18.875C25.4453 19.3672 25.8828 19.75 26.3203 19.75C26.8125 19.75 27.1953 19.3672 27.1953 18.875C27.1953 18.4375 26.8125 18 26.3203 18ZM22.875 26.75H2.85938C2.80469 26.75 2.69531 26.6953 2.69531 26.6406C2.69531 22.375 6.19531 18.875 10.4609 18.875H15.9844C17.0781 18.875 18.1172 19.1484 19.0469 19.5312C19.5938 19.75 20.1953 19.3125 20.1953 18.7109C20.1953 18.3828 20.0312 18.0547 19.7031 17.8906C18.5547 17.4531 17.2969 17.125 15.9844 17.125H10.4609C5.21094 17.125 0.945312 21.3906 1 26.6406C1 27.6797 1.82031 28.5 2.85938 28.5H22.875C23.3125 28.5 23.75 28.1172 23.75 27.625C23.75 27.1875 23.3125 26.75 22.875 26.75ZM13.25 14.5C17.0781 14.5 20.25 11.3828 20.25 7.5C20.25 3.67188 17.0781 0.5 13.25 0.5C9.36719 0.5 6.25 3.67188 6.25 7.5C6.25 11.3828 9.36719 14.5 13.25 14.5ZM13.25 2.25C16.0938 2.25 18.5 4.65625 18.5 7.5C18.5 10.3984 16.0938 12.75 13.25 12.75C10.3516 12.75 8 10.3984 8 7.5C8 4.65625 10.3516 2.25 13.25 2.25Z" fill="currentColor"/>
</svg>
