<svg width="52" height="52" viewBox="0 0 52 52" fill="none" xmlns="http://www.w3.org/2000/svg">
<path d="M26 0.238672C11.7042 0.238672 0.227295 11.8163 0.227295 26.0114C0.227295 40.3072 11.7042 51.7841 26 51.7841C40.1952 51.7841 51.7727 40.3072 51.7727 26.0114C51.7727 11.8163 40.1952 0.238672 26 0.238672ZM26 48.5625C21.1676 48.5625 16.7379 47.1531 13.1137 44.6362C13.5164 39.6025 17.644 35.6762 22.7784 35.6762H29.2216C34.2553 35.6762 38.383 39.6025 38.7857 44.6362C35.1614 47.1531 30.7317 48.5625 26 48.5625ZM41.6046 42.22C40.1952 36.6829 35.1614 32.4546 29.2216 32.4546H22.7784C16.7379 32.4546 11.7042 36.6829 10.2948 42.22C6.06643 38.0924 3.44889 32.3539 3.44889 26.0114C3.44889 13.6284 13.5164 3.46026 26 3.46026C38.383 3.46026 48.5512 13.6284 48.5512 26.0114C48.5512 32.3539 45.8329 38.0924 41.6046 42.22ZM26 13.125C21.4697 13.125 17.946 16.7493 17.946 21.179C17.946 25.7094 21.4697 29.233 26 29.233C30.4297 29.233 34.054 25.7094 34.054 21.179C34.054 16.7493 30.4297 13.125 26 13.125ZM26 26.0114C23.2818 26.0114 21.1676 23.8972 21.1676 21.179C21.1676 18.5615 23.2818 16.3466 26 16.3466C28.6176 16.3466 30.8324 18.5615 30.8324 21.179C30.8324 23.8972 28.6176 26.0114 26 26.0114Z" fill="currentColor"/>
</svg>
